<svg xmlns="http://www.w3.org/2000/svg" xml:space="preserve" width="2000" height="1500" data-id="lg_aFhRTMKRb7zpnqr9MN" data-version="1" viewBox="0 0 2000 1500"><path fill="#da443f" stroke="transparent" d="M0 0h2000v1500H0z"/><g data-padding="20"><path fill="#fff" d="M1000 260.064a109.5 77.048 0 1 0 0 154.093 109.5 77.048 0 1 0 0-154.093m-172.323 322.81A399.64 281.196 0 0 0 755.74 711.1c59.947-72.774 134.758-106.405 134.758-14.398v505.03c0 79.745 170.726 107.301 281.827.898a399.64 281.196 0 0 0 71.935-128.225c-59.947 72.774-134.758 106.405-134.758 14.397V583.773c0-79.858-170.726-107.302-281.827-.898"/><path fill="transparent" stroke="transparent" stroke-width="1.891" d="M737.185 187.5h525.63v1125h-525.63z"/></g></svg>